<svg xmlns="http://www.w3.org/2000/svg" viewBox="0 0 439.57 192.54"><defs><style>.cls-1{fill:#e30613;}.cls-2{fill:#fff;}</style></defs><g id="Camada_2" data-name="Camada 2"><g id="Artwork"><path class="cls-1" d="M439.57,0,409.83,63.76h-7.91L387.06,31.88h9.78l9.06,19.5L429.86,0Z"/><path class="cls-2" d="M326.89,31.88h18.73v8.69H346C350.59,33.74,356.66,30,365.35,30,379,30,387.43,40,387.43,54V95.4H368.08V57.69c0-6.7-3.48-11.42-10.18-11.42C351,46.27,346.24,52,346.24,60V95.4H326.89Zm-4.22,31.88c0,19-13.52,33.62-33.74,33.62s-33.74-14.64-33.74-33.62,13.52-33.61,33.74-33.61S322.67,44.66,322.67,63.76Zm-19.6,0c0-11.78-5.08-19.35-14.26-19.35s-14,7.57-14,19.35,4.83,19.36,14,19.36S303.07,75.43,303.07,63.76Zm-103,31.64h54.33V80.14H223.68v-.37l29.4-33V31.88h-53V47.14h29.77v.37L200.11,80.76Zm-70,0h19.36V66.25c0-13.28,7.94-19.11,20.09-17.5H170V32a10.86,10.86,0,0,0-4-.5c-7.57,0-12.66,3.47-17,10.92h-.37V31.88H130.13ZM106,76.54h18.6c-1.11,5.59-5.08,11.17-10.67,15a33.18,33.18,0,0,1-19.47,5.71c-21,0-33.62-14.64-33.62-33.74S74.06,30,93.17,30c8.93,0,16,2.73,21.33,7.69,7.57,6.83,11.17,17.74,11,31.39H79.77c1,8.56,6.2,14.14,14.76,14.14C100.24,83.24,104.08,80.76,106,76.54ZM79.89,56.44h25.93c-.75-7.45-5.46-12.53-12.28-12.53C85.47,43.92,81.38,48.88,79.89,56.44Zm-57.81,39H42.43L64.51,31.88H45L32.63,72.7h-.25L20,31.88H0Zm153.21,0h19.48V31.88H175.29Zm0-68.85h19.48V9.3H175.29Z"/><path class="cls-2" d="M12.34,127H31.69v9.06h.37c4-6.58,10-10.92,19.24-10.92a19,19,0,0,1,17.86,11.16h.25c5-7.69,11.79-11.16,20-11.16,14.4,0,21.59,9.8,21.59,24.07v41.31H90.75V152.84c0-6.83-2.85-10.8-8.93-10.8-6.46,0-10,5.34-10,12.9v35.61H51.54V152.84c0-6.83-2.85-10.8-8.93-10.8-6.33,0-10,5.34-10,12.9v35.61H12.34Z"/><path class="cls-2" d="M115.35,158.67c0-19,13.27-33.5,32.63-33.5,9.06,0,16.25,3,21.71,7.94,7.57,6.95,11.29,18,11.17,30.89H135.2c1.24,8.56,6,13.9,14.27,13.9,5.33,0,8.81-2.36,10.54-6.33h19.73a25.81,25.81,0,0,1-10.67,15c-5.33,3.72-11.79,5.83-19.85,5.83C128.25,192.41,115.35,177.9,115.35,158.67Zm45-6.7c-.75-7.57-5.46-12.41-12-12.41-7.69,0-11.66,4.84-13,12.41Z"/><path class="cls-2" d="M284.15,172.81c0-14,11.17-18.24,24.32-20,11.91-1.49,16.13-2.73,16.13-7.08,0-4.09-2.61-6.82-8.69-6.82-6.45,0-9.67,2.85-10.3,8.19H287c.5-11.79,9.56-21.84,28.79-21.84,9.55,0,16,1.74,20.59,5.21,5.46,4,8.07,10.18,8.07,18.12v32c0,5.08.49,7.94,2.23,9.05v.87h-19.6c-1-1.36-1.61-3.84-2.11-7.07h-.25c-3.72,5.34-9.3,8.69-18.86,8.69C293.21,192.17,284.15,185.34,284.15,172.81Zm40.94-5v-7.57a49,49,0,0,1-10.42,3.35c-7.81,1.74-11,3.72-11,8.56,0,5.09,3.72,7.07,8.68,7.07C319.88,179.26,325.09,174.67,325.09,167.85Z"/><path class="cls-2" d="M212.94,192.54a26.82,26.82,0,0,1-11.16-2.3,25.07,25.07,0,0,1-8.8-6.63A30.73,30.73,0,0,1,187.21,173a45.38,45.38,0,0,1-2.05-14.19,43.24,43.24,0,0,1,2.05-13.65,32.12,32.12,0,0,1,5.7-10.6,26.22,26.22,0,0,1,8.75-6.88,25.43,25.43,0,0,1,11.28-2.48q6.7,0,10.79,2.54a24.31,24.31,0,0,1,6.94,6.51h.38V104.52h20.21v86H231.91V182h-.24a20.94,20.94,0,0,1-7.63,7.75A21.58,21.58,0,0,1,212.94,192.54Zm5.21-16a11.42,11.42,0,0,0,9.86-5q3.53-5,3.53-12.77a32.42,32.42,0,0,0-.8-7.38,17.12,17.12,0,0,0-2.48-5.83,12.3,12.3,0,0,0-4.1-3.78,11.52,11.52,0,0,0-5.76-1.37,10.71,10.71,0,0,0-9.43,5q-3.34,5-3.35,13.09,0,8.31,3.29,13.14A10.53,10.53,0,0,0,218.15,176.54Z"/><path class="cls-2" d="M259.09,127.1h20.22v63.45H259.09Z"/><rect class="cls-2" x="259.09" y="104.52" width="20.21" height="17.24"/></g></g></svg>